<svg width="110" height="24" viewBox="0 0 110 24" fill="none" xmlns="http://www.w3.org/2000/svg">
<path d="M44.212 13.8144L42.3104 8.64021C42.2328 8.42859 41.9362 8.42859 41.8585 8.64021L39.9571 13.8148C39.9436 13.8515 39.9391 13.8911 39.944 13.93C39.9489 13.9689 39.9631 14.006 39.9853 14.0382C40.0075 14.0704 40.0371 14.0967 40.0716 14.1149C40.106 14.133 40.1443 14.1425 40.1831 14.1425H43.986C44.0249 14.1425 44.0632 14.133 44.0976 14.1148C44.1321 14.0966 44.1616 14.0703 44.1838 14.0381C44.206 14.0059 44.2201 13.9688 44.225 13.9298C44.2299 13.8909 44.2256 13.8512 44.212 13.8144ZM45.0905 16.7228H39.0788C39.0296 16.7228 38.9816 16.738 38.9412 16.7664C38.9009 16.7947 38.87 16.8348 38.8529 16.8814L37.6694 20.1009C37.6523 20.1475 37.6214 20.1876 37.5811 20.216C37.5407 20.2443 37.4927 20.2595 37.4435 20.2595H34.8378C34.7985 20.2595 34.7597 20.2498 34.7249 20.2311C34.6901 20.2125 34.6604 20.1855 34.6383 20.1526C34.6162 20.1196 34.6025 20.0817 34.5983 20.0422C34.5941 20.0027 34.5996 19.9627 34.6142 19.9258L40.6132 4.84127C40.6312 4.79621 40.6621 4.75762 40.702 4.73045C40.7419 4.70328 40.7889 4.68879 40.837 4.68884H43.332C43.4303 4.68884 43.5188 4.74916 43.5556 4.84127L49.5545 19.9256C49.5692 19.9626 49.5747 20.0026 49.5705 20.0421C49.5664 20.0817 49.5527 20.1197 49.5306 20.1526C49.5085 20.1856 49.4787 20.2126 49.4439 20.2313C49.4091 20.2499 49.3703 20.2597 49.3308 20.2597H46.7257C46.6764 20.2597 46.6284 20.2444 46.588 20.2161C46.5477 20.1877 46.5169 20.1475 46.4998 20.1009L45.3161 16.8814C45.2989 16.8348 45.2681 16.7947 45.2278 16.7664C45.1874 16.738 45.1397 16.7228 45.0905 16.7228ZM50.7753 9.98274H53.0039C53.0678 9.98274 53.1291 10.0084 53.1743 10.054C53.2195 10.0996 53.2449 10.1615 53.2449 10.226V20.0163C53.2449 20.0808 53.2195 20.1427 53.1743 20.1883C53.1291 20.2339 53.0678 20.2595 53.0039 20.2595H50.7753C50.7114 20.2595 50.6501 20.2339 50.6049 20.1883C50.5597 20.1427 50.5343 20.0808 50.5343 20.0163V10.2258C50.5343 10.1613 50.5597 10.0994 50.6049 10.0538C50.6501 10.0082 50.7114 9.98274 50.7753 9.98274ZM61.3727 12.3642C61.3727 12.4287 61.3473 12.4906 61.3021 12.5362C61.2569 12.5819 61.1956 12.6075 61.1317 12.6075H61.0643C59.9623 12.6075 59.1541 12.8744 58.64 13.4082C58.1256 13.9421 57.8688 14.8245 57.8688 16.0553V20.0163C57.8688 20.0808 57.8434 20.1427 57.7982 20.1883C57.7531 20.2339 57.6918 20.2595 57.6278 20.2595H55.4211C55.3572 20.2595 55.2959 20.2339 55.2507 20.1883C55.2055 20.1427 55.1801 20.0808 55.1801 20.0163V10.2258C55.1801 10.1613 55.2055 10.0994 55.2507 10.0538C55.2959 10.0082 55.3572 9.98258 55.4211 9.98258H57.6057C57.6696 9.98258 57.7309 10.0082 57.7761 10.0538C57.8213 10.0994 57.8467 10.1613 57.8467 10.2258V12.1623H57.8908C58.1553 11.3616 58.5739 10.7465 59.1472 10.3161C59.7199 9.88626 60.4252 9.67107 61.2625 9.67107H61.3727V12.3642ZM67.4663 12.2738C67.4024 12.2738 67.3411 12.2994 67.2959 12.345C67.2507 12.3906 67.2254 12.4525 67.2254 12.517V16.5892C67.2254 17.0045 67.3057 17.3011 67.4676 17.479C67.6291 17.6568 67.9083 17.7459 68.305 17.7459H68.5268C68.5907 17.7459 68.652 17.7715 68.6972 17.8171C68.7424 17.8627 68.7678 17.9246 68.7678 17.9891V20.0383C68.7678 20.1028 68.7424 20.1647 68.6972 20.2103C68.652 20.256 68.5907 20.2816 68.5268 20.2816H67.5777C66.5933 20.2816 65.8368 20.0259 65.3079 19.5142C64.7789 19.0026 64.5145 18.2429 64.5145 17.2343V12.517C64.5145 12.4525 64.4891 12.3906 64.4439 12.345C64.3987 12.2994 64.3374 12.2738 64.2735 12.2738H62.8824C62.8185 12.2738 62.7572 12.2481 62.712 12.2025C62.6668 12.1569 62.6414 12.095 62.6414 12.0305V10.2258C62.6414 10.1613 62.6668 10.0994 62.712 10.0538C62.7572 10.0082 62.8185 9.98258 62.8824 9.98258H64.2736C64.3376 9.98258 64.3989 9.95695 64.444 9.91133C64.4892 9.86572 64.5146 9.80385 64.5146 9.73934V6.11066C64.5146 6.04615 64.54 5.98428 64.5852 5.93867C64.6304 5.89305 64.6917 5.86742 64.7556 5.86742H66.9842C67.0481 5.86742 67.1094 5.89305 67.1546 5.93867C67.1998 5.98428 67.2252 6.04615 67.2252 6.11066V9.73934C67.2252 9.80385 67.2506 9.86572 67.2958 9.91133C67.341 9.95695 67.4023 9.98258 67.4662 9.98258H69.0777C69.1416 9.98258 69.2029 10.0082 69.2481 10.0538C69.2933 10.0994 69.3187 10.1613 69.3187 10.2258V12.0307C69.3187 12.0952 69.2933 12.1571 69.2481 12.2027C69.2029 12.2483 69.1416 12.2739 69.0777 12.2739L67.4663 12.2738ZM77.6713 17.212C78.1782 16.6782 78.4315 15.9812 78.4315 15.121C78.4315 14.2612 78.1782 13.5639 77.6713 13.0301C77.1644 12.4962 76.4995 12.2293 75.6768 12.2293C74.8539 12.2293 74.1894 12.4962 73.6824 13.0301C73.1757 13.5639 72.9222 14.2612 72.9222 15.121C72.9222 15.9812 73.1757 16.6782 73.6824 17.212C74.1894 17.7459 74.8539 18.0128 75.6768 18.0128C76.4995 18.0128 77.1644 17.7459 77.6713 17.212ZM72.5255 19.948C71.7762 19.5181 71.1847 18.8914 70.7516 18.0684C70.318 17.2454 70.1014 16.2631 70.1014 15.121C70.1014 13.9794 70.318 12.9967 70.7516 12.1737C71.1847 11.3507 71.7762 10.7245 72.5255 10.2941C73.2748 9.86404 74.0974 9.64901 74.9937 9.64901C75.787 9.64901 76.4664 9.80469 77.0324 10.116C77.5975 10.4274 78.0493 10.8651 78.3875 11.4286H78.4315V10.2258C78.4315 10.1613 78.4569 10.0994 78.5021 10.0538C78.5473 10.0082 78.6086 9.98258 78.6725 9.98258H80.8791C80.943 9.98258 81.0043 10.0082 81.0495 10.0538C81.0947 10.0994 81.1201 10.1613 81.1201 10.2258V20.0161C81.1201 20.0806 81.0947 20.1425 81.0495 20.1881C81.0043 20.2337 80.943 20.2594 80.8791 20.2594H78.6725C78.6086 20.2594 78.5473 20.2337 78.5021 20.1881C78.4569 20.1425 78.4315 20.0806 78.4315 20.0161V18.8135H78.3875C78.0493 19.3774 77.5975 19.8146 77.0322 20.1259C76.4664 20.4373 75.7871 20.5929 74.9937 20.5929C74.0974 20.5929 73.2748 20.3779 72.5255 19.948ZM90.2971 17.212C90.804 16.6782 91.0574 15.9812 91.0574 15.121C91.0574 14.2612 90.804 13.5639 90.2971 13.0301C89.7904 12.4962 89.1255 12.2293 88.3028 12.2293C87.4799 12.2293 86.8153 12.4962 86.3084 13.0301C85.8017 13.5639 85.548 14.2612 85.548 15.121C85.548 15.9812 85.8017 16.6782 86.3084 17.212C86.8153 17.7459 87.4799 18.0128 88.3028 18.0128C89.1255 18.0128 89.7904 17.7459 90.2971 17.212ZM86.9475 20.1259C86.3818 19.8146 85.9299 19.3774 85.5922 18.8135H85.548V20.0161C85.548 20.0806 85.5226 20.1425 85.4774 20.1881C85.4323 20.2337 85.371 20.2594 85.307 20.2594H83.0784C83.0145 20.2594 82.9532 20.2337 82.908 20.1881C82.8629 20.1425 82.8375 20.0806 82.8375 20.0161V4.93159C82.8375 4.86708 82.8629 4.80521 82.908 4.75959C82.9532 4.71398 83.0145 4.68835 83.0784 4.68835H85.307C85.371 4.68835 85.4323 4.71398 85.4774 4.75959C85.5226 4.80521 85.548 4.86708 85.548 4.93159V11.4284H85.5922C85.9299 10.8649 86.3818 10.4274 86.9475 10.116C87.513 9.80453 88.1926 9.64885 88.986 9.64885C89.882 9.64885 90.7049 9.86388 91.4542 10.2939C92.2035 10.7243 92.7947 11.3506 93.2281 12.1734C93.6614 12.9968 93.8785 13.9795 93.8785 15.1211C93.8785 16.2632 93.6614 17.2454 93.2283 18.0686C92.7948 18.8915 92.2036 19.5183 91.4543 19.948C90.705 20.3781 89.8822 20.5933 88.9862 20.5933C88.1927 20.5933 87.513 20.4374 86.9475 20.1259ZM97.6333 20.2595H95.4047C95.3408 20.2595 95.2795 20.2339 95.2343 20.1883C95.1891 20.1427 95.1637 20.0808 95.1637 20.0163V4.93208C95.1637 4.86757 95.1891 4.8057 95.2343 4.76008C95.2795 4.71446 95.3408 4.68884 95.4047 4.68884H97.6333C97.6972 4.68884 97.7585 4.71446 97.8037 4.76008C97.8489 4.8057 97.8743 4.86757 97.8743 4.93208V20.0163C97.8743 20.0808 97.8489 20.1427 97.8037 20.1883C97.7585 20.2339 97.6972 20.2595 97.6333 20.2595ZM102.89 12.3629C102.521 12.6539 102.271 13.0739 102.142 13.6233C102.107 13.7747 102.224 13.92 102.378 13.92H106.619C106.766 13.92 106.882 13.787 106.858 13.6404C106.773 13.1207 106.553 12.7064 106.196 12.3963C105.777 12.0331 105.23 11.8515 104.554 11.8515C103.878 11.8515 103.323 12.0219 102.89 12.3629ZM108.322 11.0838C109.189 12.0406 109.623 13.3938 109.623 15.1433V15.4339C109.623 15.4985 109.597 15.5603 109.552 15.6059C109.507 15.6516 109.446 15.6772 109.382 15.6772H102.296C102.261 15.6773 102.226 15.6851 102.194 15.7002C102.162 15.7153 102.134 15.7372 102.111 15.7645C102.088 15.7917 102.072 15.8237 102.062 15.8581C102.053 15.8924 102.052 15.9284 102.058 15.9636C102.171 16.6135 102.456 17.1298 102.912 17.5124C103.434 17.9502 104.091 18.1686 104.885 18.1686C105.909 18.1686 106.857 17.7652 107.729 16.9581C107.835 16.8595 108.004 16.8804 108.086 17.0003L109.17 18.57C109.204 18.6188 109.219 18.6785 109.212 18.7378C109.205 18.797 109.177 18.8517 109.133 18.8914C108.601 19.3613 108.01 19.7577 107.375 20.0704C106.669 20.4188 105.839 20.5933 104.885 20.5933C103.783 20.5933 102.82 20.3669 101.998 19.9148C101.175 19.4627 100.536 18.825 100.081 18.0018C99.6249 17.1788 99.3973 16.2261 99.3973 15.1433C99.3973 14.0611 99.6177 13.1047 100.058 12.2739C100.499 11.4436 101.116 10.7986 101.91 10.3387C102.703 9.87928 103.628 9.64918 104.686 9.64918C106.243 9.64918 107.455 10.1276 108.322 11.0838ZM53.536 6.36331C53.536 7.28082 52.799 8.02465 51.8899 8.02465C50.9806 8.02465 50.2437 7.28082 50.2437 6.36315C50.2437 5.44548 50.9808 4.70165 51.8899 4.70165C52.799 4.70165 53.536 5.44564 53.536 6.36331Z" fill="#333333"/>
<path d="M13.0691 0.302923L2.47236 4.72878C1.88308 4.97494 1.88919 5.81996 2.48216 6.0572L13.1231 10.3165C14.0581 10.6908 15.0993 10.6908 16.0342 10.3165L26.6753 6.05704C27.2681 5.81996 27.2746 4.9751 26.685 4.72894L16.0885 0.302761C15.1217 -0.101028 14.0359 -0.100866 13.0691 0.302923Z" fill="#FCB400"/>
<path d="M15.5228 12.6422V23.2827C15.5228 23.7887 16.0284 24.1354 16.4945 23.9489L28.3518 19.3033C28.484 19.2504 28.5974 19.1586 28.6774 19.0398C28.7573 18.921 28.8 18.7807 28.8 18.6371V7.99678C28.8 7.49068 28.2944 7.14414 27.8283 7.33063L15.9711 11.9762C15.8388 12.0292 15.7254 12.121 15.6455 12.2397C15.5656 12.3585 15.5228 12.4986 15.5228 12.6422Z" fill="#18BFFF"/>
<path d="M12.754 13.1909L9.23498 14.9059L8.87768 15.0802L1.44933 18.6729C0.978611 18.9022 0.377441 18.5558 0.377441 18.0278V8.04099C0.377441 7.84996 0.474477 7.68504 0.604607 7.56099C0.657993 7.50733 0.718558 7.46148 0.784541 7.42477C0.961903 7.31726 1.2151 7.28856 1.43037 7.3745L12.6948 11.8797C13.2674 12.109 13.3124 12.9186 12.754 13.1909Z" fill="#F82B60"/>
<path d="M12.754 13.1909L9.23498 14.9059L0.604607 7.56099C0.657993 7.50733 0.718558 7.46148 0.784541 7.42477C0.961903 7.31726 1.2151 7.28856 1.43037 7.3745L12.6948 11.8797C13.2674 12.109 13.3124 12.9186 12.754 13.1909Z" fill="black" fill-opacity="0.25"/>
</svg>
